<?xml version="1.0" encoding="utf-8"?>
<!-- Generator: Adobe Illustrator 23.0.3, SVG Export Plug-In . SVG Version: 6.00 Build 0)  -->
<svg version="1.1" id="Layer_1" xmlns="http://www.w3.org/2000/svg" xmlns:xlink="http://www.w3.org/1999/xlink" x="0px" y="0px"
	 viewBox="0 0 1285.95 740.09" style="enable-background:new 0 0 1285.95 740.09;" xml:space="preserve">
<style type="text/css">
	.st0{fill:#560416;}
	.st1{fill:#D81942;}
	.st2{fill:#FFFFFF;}
	.st3{fill:#BA2740;}
	.st4{fill:#EFEFEF;}
	.st5{fill:#FC124F;}
	.st6{fill:#353535;}
	.st7{fill:#91172C;}
	.st8{fill:#3F3D56;}
	.st9{opacity:0.05;fill:#FC124F;enable-background:new    ;}
	.st10{opacity:0.1;fill:#FC124F;enable-background:new    ;}
	.st11{fill:none;stroke:#3F3D56;stroke-width:2;stroke-miterlimit:10;}
	.st12{fill:none;stroke:#000000;stroke-miterlimit:10;}
	.st13{fill:#F2F2F2;}
	.st14{fill:#2F2E41;}
	.st15{opacity:0.1;enable-background:new    ;}
	.st16{fill:#A0616A;}
	.st17{fill:none;stroke:#3F3D56;stroke-width:6;stroke-miterlimit:10;}
	.st18{fill:none;stroke:#BA2740;stroke-width:6;stroke-linecap:round;stroke-linejoin:round;stroke-miterlimit:10;}
</style>
<g>
	<g>
		<path class="st9" d="M1189.66,403.07c-0.07,111.73-90.7,202.25-202.43,202.19c-10.68-0.01-21.35-0.86-31.9-2.55H634.8
			c-12.38,1.7-24.86,2.55-37.36,2.55c-121.77,0-224.9-79.89-259.79-190.12c-8.42-26.63-12.69-54.4-12.66-82.33
			c0-150.47,121.98-272.45,272.45-272.45c121.18,0,223.87,79.1,259.26,188.53c36.5-31.06,82.89-48.08,130.81-48.01
			C1099.14,200.88,1189.66,291.4,1189.66,403.07z"/>
		<path class="st10" d="M1112,562.36c-44.35,34.63-101.11,49.24-156.66,40.34H634.8c-12.38,1.7-24.86,2.55-37.36,2.55
			c-121.77,0-224.9-79.89-259.79-190.12c26.09-55.77,93.14-95.45,171.75-95.45c76.6,0,142.23,37.69,169.67,91.22
			c13.49-2.45,27.18-3.68,40.9-3.68c79.4,0,146.99,40.49,172.52,97.14c21.14-6.41,43.12-9.64,65.21-9.59
			C1022.46,494.78,1079.37,521.71,1112,562.36z"/>
	</g>
	<g>
		<rect x="232.03" y="187.3" class="st11" width="407.92" height="476.82"/>
		<line class="st11" x1="232.03" y1="228.47" x2="639.95" y2="228.47"/>
		<line class="st12" x1="618.16" y1="204.88" x2="624.56" y2="211.28"/>
		<line class="st12" x1="624.56" y1="204.88" x2="618.16" y2="211.28"/>
		<line class="st11" x1="618.16" y1="204.88" x2="624.56" y2="211.28"/>
		<line class="st11" x1="624.56" y1="204.88" x2="618.16" y2="211.28"/>
		<rect x="261.56" y="203.7" class="st8" width="63.43" height="8.75"/>
		<rect x="340.3" y="203.7" class="st8" width="63.43" height="8.75"/>
		<rect x="419.04" y="203.7" class="st8" width="63.43" height="8.75"/>
		<rect x="324.99" y="292.29" class="st8" width="220.91" height="26.25"/>
		<rect x="256.09" y="391.81" class="st5" width="358.71" height="183.73"/>
		<circle class="st8" cx="420.14" cy="638.96" r="5.47"/>
		<circle class="st8" cx="435.45" cy="638.96" r="5.47"/>
		<circle class="st8" cx="450.76" cy="638.96" r="5.47"/>
		<rect x="597.82" y="329.2" class="st2" width="351.05" height="47.03"/>
		<rect x="588.55" y="320.72" class="st11" width="351.05" height="47.03"/>
		<rect x="621.91" y="339.86" class="st8" width="63.43" height="8.75"/>
		<rect x="732.36" y="339.86" class="st8" width="63.43" height="8.75"/>
		<rect x="842.82" y="339.86" class="st8" width="63.43" height="8.75"/>
		<rect x="177.09" y="351.45" class="st13" width="64.82" height="70.3"/>
		<rect x="185.09" y="346.36" class="st11" width="64.82" height="70.3"/>
		<circle class="st5" cx="205.18" cy="381.96" r="4.56"/>
		<circle class="st5" cx="217.96" cy="381.96" r="4.56"/>
		<circle class="st5" cx="230.74" cy="381.96" r="4.56"/>
		<path class="st14" d="M107.73,676.13c0,0,33.3,18.17,31.94,23.82c-0.74,3.07-18.64-1.51-35.48-7.35
			c-14.2-4.93,7.88-2.74,6.11-5.63C106.43,680.66,107.73,676.13,107.73,676.13z"/>
		<path class="st14" d="M187.77,670.82c0,0,36.62,9.88,36.62,15.7c0,5.81-62.78,0-68.01-5.23
			C151.15,676.05,187.77,670.82,187.77,670.82z"/>
		<path class="st14" d="M124.99,415.03l15.7,26.16c0,0,26.16,68.01,31.39,109.87c5.23,41.86,36.62,115.1,26.16,125.57
			c-10.46,10.46-62.78,11.05-62.78,0V462.12L124.99,415.03z"/>
		<path class="st15" d="M124.99,415.03l15.7,26.16c0,0,26.16,68.01,31.39,109.87c5.23,41.86,36.62,115.1,26.16,125.57
			c-10.46,10.46-62.78,11.05-62.78,0V462.12L124.99,415.03z"/>
		<path class="st16" d="M83.13,394.11v20.93c0,5.23,31.39,5.23,31.39,5.23v-20.93L83.13,394.11z"/>
		<path class="st14" d="M98.83,404.57l-15.41,4.94c0,0-15.99,30.52-10.75,46.8C77.9,472.59,93.6,561.53,93.6,561.53v57.55
			c0,0-31.39,52.32-15.7,62.78s47.09,21.51,52.32,15.7c5.23-5.81,10.46-224.97,10.46-224.97v-31.39l-5.23-41.86L98.83,404.57z"/>
		<circle class="st14" cx="126.03" cy="261.76" r="30.64"/>
		<ellipse class="st14" cx="136.75" cy="258.44" rx="19.92" ry="15.58"/>
		<circle class="st16" cx="130.51" cy="268.25" r="25.87"/>
		<path class="st16" d="M114.52,284.24c0,0,5.23,10.46-5.23,15.7s20.93,26.16,20.93,26.16l10.46-36.62L114.52,284.24z"/>
		<path class="st5" d="M119.76,305.16c0,0-10.46-15.7-15.7-5.23c-5.23,10.46-31.39,41.86-31.39,73.25s0,31.39,5.23,31.39
			c5.23,0,20.93-5.23,26.16,0c5.23,5.23,26.16,0,26.16,0l5.23-47.09c0,0,5.23-26.16,0-31.39
			C130.22,320.86,119.76,305.16,119.76,305.16z"/>
		<path class="st5" d="M93.6,326.09c0,0-15.7,78.48,0,83.71s62.78,25.58,62.78,20.35s5.23-10.46,5.23-10.46s5.23,5.23,5.23,0v-9.88
			l-52.32-20.93v-52.32c0,0,10.46-26.16,0-26.16S93.6,326.09,93.6,326.09z"/>
		<path class="st16" d="M161.61,409.8c0,0,36.04,0,36.62,10.46c0.58,10.46-36.62-0.58-36.62-0.58L161.61,409.8z"/>
		
			<ellipse transform="matrix(0.9538 -0.3005 0.3005 0.9538 -69.5637 49.8554)" class="st14" cx="127.31" cy="251.1" rx="23.54" ry="13.08"/>
		<path class="st14" d="M126.03,231.11c0,0-17.23-2.41-34.57,14.45s-4.84,42.36-27.18,50.77c0,0,20.22,35.93,49.54,0
			c0,0,8.05-12.76,1.4-20.36c0,0-8.79-9.71,1.62-10.53"/>
	</g>
</g>
<rect x="1030.81" y="85.52" class="st10" width="207.55" height="272.5"/>
<line class="st5" x1="1031.52" y1="85.52" x2="1239.07" y2="358.02"/>
<line class="st5" x1="1239.07" y1="85.52" x2="1031.52" y2="358.02"/>
<rect x="984.92" y="190" class="st5" width="207.55" height="272.5"/>
<rect x="1042.11" y="233.07" class="st8" width="93.19" height="93.19"/>
<rect x="1006.81" y="346.02" class="st2" width="163.78" height="11.3"/>
<rect x="1006.81" y="377.08" class="st2" width="163.78" height="11.3"/>
<rect x="1006.81" y="408.14" class="st2" width="163.78" height="11.3"/>
</svg>
