<?xml version="1.0" encoding="utf-8"?>
<!-- Generator: Adobe Illustrator 20.1.0, SVG Export Plug-In . SVG Version: 6.00 Build 0)  -->
<svg version="1.1" id="Layer_1" xmlns="http://www.w3.org/2000/svg" xmlns:xlink="http://www.w3.org/1999/xlink" x="0px" y="0px"
	 viewBox="0 0 412.1 370.7" style="enable-background:new 0 0 412.1 370.7;" xml:space="preserve">
<style type="text/css">
	.st0{fill:#F53942;}
</style>
<g>
	<g>
		<path d="M60.7,330.2c0,15.9-8.9,24.9-24.5,24.9H17v-49.7h19.2C51.8,305.3,60.7,314.3,60.7,330.2z M49.9,330.2
			c0-10.7-4.7-16.6-14.2-16.6h-8.3v33.2h8.3C45.2,346.8,49.9,340.9,49.9,330.2z"/>
		<path d="M109.2,309.3H91.3v45.8H87v-45.8H69v-4h40.2V309.3z"/>
		<path d="M158.8,351.1v4h-35.3v-49.7h34.1v4h-29.8v18.5h23.5v4h-23.5v19.3H158.8z"/>
		<path d="M194.3,355.8c-13.8,0-22.7-9.9-22.7-25.6s9-25.6,22.6-25.6c9.9,0,16.4,4.1,19.3,12.1l-4.2,2c-2.3-6.7-7.1-10.1-14.8-10.1
			c-11.1,0-18.5,8.1-18.5,21.6c0,13.4,7.2,21.6,18.2,21.6c7.7,0,13.4-3.8,15.7-11l4.2,1.6C211.3,350.9,203.9,355.8,194.3,355.8z"/>
		<path d="M262.4,309.3h-17.9v45.8h-4.3v-45.8h-18v-4h40.2V309.3z"/>
		<path d="M282.5,355.1h-4.3v-49.7h4.3V355.1z"/>
		<path d="M322.4,355.1h-5l-19.1-49.7h4.6l14.2,37.5l2.8,8.2l2.8-8.1l14.2-37.6h4.6L322.4,355.1z"/>
		<path d="M392.6,351.1v4h-35.3v-49.7h34.1v4h-29.8v18.5h23.5v4h-23.5v19.3H392.6z"/>
	</g>
</g>
<g>
	<path d="M255.5,10.1v28.3c57.7,0,104.7,47.4,104.7,105.6s-47,105.6-104.7,105.6v28.3c73.3,0,132.6-59.9,132.6-133.9
		S328.8,10.1,255.5,10.1z"/>
	<path d="M255.5,61.9v11.9c37.9,0.8,68.4,32.1,68.4,70.6c0,38.5-30.6,69.8-68.4,70.6v11.9c45,0,81.6-37,81.6-82.5
		S300.5,61.9,255.5,61.9z"/>
</g>
<path class="st0" d="M237.2,63.6V40c-49.1,8.8-86.4,52-86.4,104c0,9.9,1.4,19.6,3.9,28.7L127,184.8l-6.3-14.4L9.4,219.2l22.8,52
	l111.3-48.8l-6.3-14.4l27.3-12c15.1,26.9,41.6,46.4,72.8,52v-23.6c-36.2-8.4-63.3-41.2-63.3-80.4C173.9,104.9,201,72.1,237.2,63.6z"
	/>
<rect x="216.1" y="10.1" transform="matrix(-1 -1.224647e-16 1.224647e-16 -1 453.3442 288.0031)" width="21.1" height="267.8"/>
</svg>
